<?xml version="1.0" standalone="no"?>
<!DOCTYPE svg PUBLIC "-//W3C//DTD SVG 20010904//EN"
 "http://www.w3.org/TR/2001/REC-SVG-20010904/DTD/svg10.dtd">
<svg version="1.0" xmlns="http://www.w3.org/2000/svg"
 width="1088.000000pt" height="1088.000000pt" viewBox="0 0 1088.000000 1088.000000"
 preserveAspectRatio="xMidYMid meet">
<metadata>
Created by potrace 1.14, written by Peter Selinger 2001-2017
</metadata>
<g transform="translate(0.000000,1088.000000) scale(0.100000,-0.100000)"
fill="#000000" stroke="none">
<path d="M2897 9754 c-1 -1 -20 -4 -43 -6 -23 -3 -47 -9 -55 -14 -8 -5 -19 -9
-24 -10 -6 -1 -63 -39 -129 -85 -65 -46 -125 -88 -134 -94 -9 -5 -21 -14 -28
-20 -6 -5 -75 -55 -153 -110 -248 -175 -346 -245 -364 -260 -9 -8 -19 -15 -21
-15 -3 0 -42 -27 -88 -61 -46 -33 -94 -68 -108 -77 -14 -9 -58 -40 -97 -69
-40 -29 -77 -53 -82 -53 -5 0 -11 -4 -13 -8 -1 -5 -32 -28 -68 -53 -36 -24
-67 -47 -70 -50 -3 -3 -52 -39 -110 -80 -58 -40 -106 -77 -108 -81 -2 -5 -10
-8 -18 -8 -8 0 -14 -5 -14 -12 0 -6 -3 -9 -6 -5 -3 3 -15 -3 -27 -13 -17 -15
-190 -140 -277 -200 -8 -6 -100 -71 -205 -145 -104 -74 -198 -141 -209 -147
-10 -7 -24 -17 -30 -23 -6 -5 -31 -23 -56 -40 -68 -44 -133 -114 -160 -170
-19 -40 -24 -66 -24 -130 0 -146 53 -216 272 -360 9 -5 23 -15 31 -22 24 -18
134 -97 292 -208 78 -55 150 -108 162 -117 11 -10 26 -18 34 -18 7 0 13 -4 13
-8 0 -8 114 -92 124 -92 5 0 21 -12 60 -45 7 -5 19 -14 28 -20 9 -5 41 -28 72
-50 31 -22 157 -112 281 -200 123 -88 265 -189 315 -225 51 -36 99 -69 108
-75 9 -5 19 -12 22 -16 3 -3 27 -21 55 -40 27 -18 58 -42 69 -51 11 -10 23
-18 27 -18 4 0 14 -6 21 -12 7 -7 40 -31 72 -53 33 -22 64 -44 70 -50 6 -5 31
-23 56 -40 25 -16 50 -34 55 -38 6 -5 80 -57 165 -117 85 -60 160 -113 165
-117 21 -18 74 -34 120 -38 26 -2 49 -6 52 -8 10 -11 139 33 171 58 62 46 122
130 122 169 0 9 4 16 8 16 5 0 9 199 10 443 0 243 1 444 1 447 1 3 1683 6
3739 6 2055 1 3748 4 3762 8 36 8 72 38 95 77 20 33 20 53 21 799 0 435 -4
780 -9 800 -11 44 -79 110 -115 111 -15 1 -1704 2 -3754 3 -2050 1 -3730 5
-3734 9 -4 3 -7 199 -7 434 0 262 -4 441 -11 463 -25 89 -131 199 -207 216
-40 9 -54 12 -54 14 0 2 -56 6 -58 4z"/>
<path d="M8068 5145 c-2 -2 -16 -5 -33 -8 -42 -7 -115 -37 -115 -48 0 -5 -3
-8 -7 -7 -14 5 -48 -26 -81 -73 -60 -83 -61 -97 -62 -566 0 -235 -3 -429 -6
-432 -3 -3 -1689 -6 -3747 -7 -2651 0 -3749 -4 -3768 -11 -23 -10 -87 -74 -91
-91 0 -4 -2 -358 -3 -787 -1 -603 1 -787 11 -810 18 -43 55 -74 105 -88 34
-10 872 -12 3772 -12 l3727 1 1 -410 c0 -394 2 -457 13 -501 16 -69 97 -161
172 -196 37 -17 67 -23 124 -23 87 0 130 5 130 16 0 4 5 8 11 8 14 0 133 79
137 92 2 4 8 8 13 8 5 0 47 28 95 63 47 34 93 67 102 72 9 6 19 13 22 16 4 4
112 81 223 159 70 48 415 293 427 303 9 7 38 28 65 47 28 19 52 38 53 42 2 4
9 8 16 8 7 0 21 8 32 18 10 10 42 33 69 52 28 18 64 44 80 57 32 25 43 33 67
48 38 25 75 51 92 67 11 10 25 18 32 18 7 0 14 4 16 8 2 5 75 59 163 121 88
63 162 118 163 122 2 5 8 9 14 9 6 0 49 28 97 63 47 35 118 85 156 112 39 27
72 52 73 57 2 4 8 8 12 8 5 0 53 32 107 71 54 39 109 78 123 87 131 89 184
237 137 381 -23 72 -74 132 -162 192 -57 39 -62 43 -94 69 -13 11 -32 22 -42
25 -11 4 -19 10 -19 15 0 5 -11 15 -24 22 -42 23 -111 70 -121 82 -5 7 -28 23
-50 36 -22 13 -45 29 -52 35 -23 19 -38 30 -68 49 -16 11 -34 23 -40 28 -5 5
-71 52 -145 104 -74 52 -142 100 -150 107 -8 7 -53 39 -100 71 -47 33 -108 76
-137 98 -29 21 -56 38 -62 38 -5 0 -11 7 -15 15 -3 8 -12 15 -20 15 -8 0 -16
3 -18 8 -2 6 -156 119 -234 172 -94 64 -150 105 -152 112 -2 4 -10 8 -18 8 -8
0 -14 5 -14 10 0 6 -6 10 -14 10 -8 0 -16 4 -18 8 -1 4 -34 30 -73 57 -38 27
-72 52 -75 56 -3 3 -16 12 -29 19 -14 7 -30 17 -35 22 -12 10 -167 122 -233
168 -152 105 -319 225 -321 232 -2 4 -8 6 -13 2 -5 -3 -9 -1 -9 3 0 10 -54 31
-95 39 -40 7 -84 12 -87 9z"/>
</g>
</svg>
