<svg width="68" height="55" viewBox="0 0 68 55" fill="none" xmlns="http://www.w3.org/2000/svg">
<path fill-rule="evenodd" clip-rule="evenodd" d="M1.91228 11.6452C0.790247 12.4425 0.790248 14.1086 1.91228 14.9059L17.0146 25.6373C18.3388 26.5783 20.173 25.6315 20.173 24.007V18.8975H66.7835C67.3358 18.8975 67.7835 18.4497 67.7835 17.8975V8.65365C67.7835 8.10136 67.3358 7.65365 66.7835 7.65365H20.173V2.5441C20.173 0.9196 18.3388 -0.0271864 17.0146 0.913787L1.91228 11.6452Z" fill="#002050"/>
<path fill-rule="evenodd" clip-rule="evenodd" d="M66.8283 43.7181C67.9503 42.9208 67.9503 41.2548 66.8283 40.4575L51.726 29.7261C50.4018 28.7851 48.5675 29.7319 48.5675 31.3564L48.5675 36.4659L1.95703 36.4659C1.40475 36.4659 0.957033 36.9136 0.957033 37.4659L0.957032 46.7097C0.957032 47.262 1.40475 47.7097 1.95703 47.7097L48.5675 47.7097L48.5675 52.8193C48.5675 54.4438 50.4018 55.3906 51.726 54.4496L66.8283 43.7181Z" fill="#F3785B"/>
</svg>
